<svg width="601" height="928" viewBox="0 0 601 928" fill="none" xmlns="http://www.w3.org/2000/svg">
<path opacity="0.2" d="M373.821 0.835937C424.111 35.7672 472.742 73.5101 519.202 113.406C597.733 180.813 686.931 268.049 757.914 365.6C828.898 463.151 881.634 570.971 887.32 679.56V716.982L883.26 757.452C857.565 952.355 698.425 1111.48 503.104 1136.19L457.447 1140.25C452.942 1140.11 448.405 1140.2 443.886 1140.28C439.351 1140.36 434.832 1140.43 430.349 1140.25C229.056 1131.78 55.0667 992.6 11.4453 794.418C-21.7897 643.425 23.3708 527.267 110.25 407.61L112.311 404.783C135.839 372.613 161.718 341.374 187.867 310.069C214.014 278.769 240.432 247.403 265.023 214.998C314.06 150.382 355.863 81.5956 373.821 0.835937Z" stroke="white"/>
</svg>
